<svg xmlns="http://www.w3.org/2000/svg" viewBox="0 0 1024 1024" width="1024" height="1024">
<defs>
<linearGradient id="g3" x1="0" y1="0" x2="1" y2="1"><stop offset="0%" stop-color="#1E1B4B"/><stop offset="100%" stop-color="#0B071E"/></linearGradient>
</defs>
<rect x="0" y="0" width="1024" height="1024" rx="220" ry="220" fill="url(#g3)"/><line x1="0" y1="0" x2="0" y2="1024" stroke="#4F2DC9" stroke-width="1" opacity="0.12"/><line x1="0" y1="0" x2="1024" y2="0" stroke="#4F2DC9" stroke-width="1" opacity="0.12"/><line x1="64" y1="0" x2="64" y2="1024" stroke="#4F2DC9" stroke-width="1" opacity="0.12"/><line x1="0" y1="64" x2="1024" y2="64" stroke="#4F2DC9" stroke-width="1" opacity="0.12"/><line x1="128" y1="0" x2="128" y2="1024" stroke="#4F2DC9" stroke-width="1" opacity="0.12"/><line x1="0" y1="128" x2="1024" y2="128" stroke="#4F2DC9" stroke-width="1" opacity="0.12"/><line x1="192" y1="0" x2="192" y2="1024" stroke="#4F2DC9" stroke-width="1" opacity="0.12"/><line x1="0" y1="192" x2="1024" y2="192" stroke="#4F2DC9" stroke-width="1" opacity="0.12"/><line x1="256" y1="0" x2="256" y2="1024" stroke="#4F2DC9" stroke-width="1" opacity="0.12"/><line x1="0" y1="256" x2="1024" y2="256" stroke="#4F2DC9" stroke-width="1" opacity="0.12"/><line x1="320" y1="0" x2="320" y2="1024" stroke="#4F2DC9" stroke-width="1" opacity="0.12"/><line x1="0" y1="320" x2="1024" y2="320" stroke="#4F2DC9" stroke-width="1" opacity="0.12"/><line x1="384" y1="0" x2="384" y2="1024" stroke="#4F2DC9" stroke-width="1" opacity="0.12"/><line x1="0" y1="384" x2="1024" y2="384" stroke="#4F2DC9" stroke-width="1" opacity="0.12"/><line x1="448" y1="0" x2="448" y2="1024" stroke="#4F2DC9" stroke-width="1" opacity="0.12"/><line x1="0" y1="448" x2="1024" y2="448" stroke="#4F2DC9" stroke-width="1" opacity="0.12"/><line x1="512" y1="0" x2="512" y2="1024" stroke="#4F2DC9" stroke-width="1" opacity="0.12"/><line x1="0" y1="512" x2="1024" y2="512" stroke="#4F2DC9" stroke-width="1" opacity="0.12"/><line x1="576" y1="0" x2="576" y2="1024" stroke="#4F2DC9" stroke-width="1" opacity="0.12"/><line x1="0" y1="576" x2="1024" y2="576" stroke="#4F2DC9" stroke-width="1" opacity="0.12"/><line x1="640" y1="0" x2="640" y2="1024" stroke="#4F2DC9" stroke-width="1" opacity="0.12"/><line x1="0" y1="640" x2="1024" y2="640" stroke="#4F2DC9" stroke-width="1" opacity="0.12"/><line x1="704" y1="0" x2="704" y2="1024" stroke="#4F2DC9" stroke-width="1" opacity="0.12"/><line x1="0" y1="704" x2="1024" y2="704" stroke="#4F2DC9" stroke-width="1" opacity="0.12"/><line x1="768" y1="0" x2="768" y2="1024" stroke="#4F2DC9" stroke-width="1" opacity="0.12"/><line x1="0" y1="768" x2="1024" y2="768" stroke="#4F2DC9" stroke-width="1" opacity="0.12"/><line x1="832" y1="0" x2="832" y2="1024" stroke="#4F2DC9" stroke-width="1" opacity="0.12"/><line x1="0" y1="832" x2="1024" y2="832" stroke="#4F2DC9" stroke-width="1" opacity="0.12"/><line x1="896" y1="0" x2="896" y2="1024" stroke="#4F2DC9" stroke-width="1" opacity="0.12"/><line x1="0" y1="896" x2="1024" y2="896" stroke="#4F2DC9" stroke-width="1" opacity="0.12"/><line x1="960" y1="0" x2="960" y2="1024" stroke="#4F2DC9" stroke-width="1" opacity="0.12"/><line x1="0" y1="960" x2="1024" y2="960" stroke="#4F2DC9" stroke-width="1" opacity="0.12"/><rect x="484.0" y="200" width="50" height="50" rx="6" ry="6" fill="#F5C242"/><rect x="428.0" y="256" width="50" height="50" rx="6" ry="6" fill="#F5C242"/><rect x="484.0" y="256" width="50" height="50" rx="6" ry="6" fill="#F5C242"/><rect x="540.0" y="256" width="50" height="50" rx="6" ry="6" fill="#F5C242"/><rect x="428.0" y="312" width="50" height="50" rx="6" ry="6" fill="#F5C242"/><rect x="484.0" y="312" width="50" height="50" rx="6" ry="6" fill="#F5C242"/><rect x="540.0" y="312" width="50" height="50" rx="6" ry="6" fill="#F5C242"/><rect x="372.0" y="368" width="50" height="50" rx="6" ry="6" fill="#F5C242"/><rect x="428.0" y="368" width="50" height="50" rx="6" ry="6" fill="#F5C242"/><rect x="484.0" y="368" width="50" height="50" rx="6" ry="6" fill="#F5C242"/><rect x="540.0" y="368" width="50" height="50" rx="6" ry="6" fill="#F5C242"/><rect x="596.0" y="368" width="50" height="50" rx="6" ry="6" fill="#F5C242"/><rect x="204.0" y="424" width="50" height="50" rx="6" ry="6" fill="#F5C242"/><rect x="260.0" y="424" width="50" height="50" rx="6" ry="6" fill="#F5C242"/><rect x="316.0" y="424" width="50" height="50" rx="6" ry="6" fill="#F5C242"/><rect x="372.0" y="424" width="50" height="50" rx="6" ry="6" fill="#F5C242"/><rect x="428.0" y="424" width="50" height="50" rx="6" ry="6" fill="#F5C242"/><rect x="484.0" y="424" width="50" height="50" rx="6" ry="6" fill="#F5C242"/><rect x="540.0" y="424" width="50" height="50" rx="6" ry="6" fill="#F5C242"/><rect x="596.0" y="424" width="50" height="50" rx="6" ry="6" fill="#F5C242"/><rect x="652.0" y="424" width="50" height="50" rx="6" ry="6" fill="#F5C242"/><rect x="708.0" y="424" width="50" height="50" rx="6" ry="6" fill="#F5C242"/><rect x="764.0" y="424" width="50" height="50" rx="6" ry="6" fill="#F5C242"/><rect x="260.0" y="480" width="50" height="50" rx="6" ry="6" fill="#F5C242"/><rect x="316.0" y="480" width="50" height="50" rx="6" ry="6" fill="#F5C242"/><rect x="372.0" y="480" width="50" height="50" rx="6" ry="6" fill="#F5C242"/><rect x="428.0" y="480" width="50" height="50" rx="6" ry="6" fill="#F5C242"/><rect x="484.0" y="480" width="50" height="50" rx="6" ry="6" fill="#F5C242"/><rect x="540.0" y="480" width="50" height="50" rx="6" ry="6" fill="#F5C242"/><rect x="596.0" y="480" width="50" height="50" rx="6" ry="6" fill="#F5C242"/><rect x="652.0" y="480" width="50" height="50" rx="6" ry="6" fill="#F5C242"/><rect x="708.0" y="480" width="50" height="50" rx="6" ry="6" fill="#F5C242"/><rect x="316.0" y="536" width="50" height="50" rx="6" ry="6" fill="#C4B5FD"/><rect x="372.0" y="536" width="50" height="50" rx="6" ry="6" fill="#C4B5FD"/><rect x="428.0" y="536" width="50" height="50" rx="6" ry="6" fill="#C4B5FD"/><rect x="484.0" y="536" width="50" height="50" rx="6" ry="6" fill="#C4B5FD"/><rect x="540.0" y="536" width="50" height="50" rx="6" ry="6" fill="#C4B5FD"/><rect x="596.0" y="536" width="50" height="50" rx="6" ry="6" fill="#C4B5FD"/><rect x="652.0" y="536" width="50" height="50" rx="6" ry="6" fill="#C4B5FD"/><rect x="316.0" y="592" width="50" height="50" rx="6" ry="6" fill="#C4B5FD"/><rect x="372.0" y="592" width="50" height="50" rx="6" ry="6" fill="#C4B5FD"/><rect x="428.0" y="592" width="50" height="50" rx="6" ry="6" fill="#C4B5FD"/><rect x="484.0" y="592" width="50" height="50" rx="6" ry="6" fill="#C4B5FD"/><rect x="540.0" y="592" width="50" height="50" rx="6" ry="6" fill="#C4B5FD"/><rect x="596.0" y="592" width="50" height="50" rx="6" ry="6" fill="#C4B5FD"/><rect x="652.0" y="592" width="50" height="50" rx="6" ry="6" fill="#C4B5FD"/><rect x="260.0" y="648" width="50" height="50" rx="6" ry="6" fill="#C4B5FD"/><rect x="316.0" y="648" width="50" height="50" rx="6" ry="6" fill="#C4B5FD"/><rect x="372.0" y="648" width="50" height="50" rx="6" ry="6" fill="#C4B5FD"/><rect x="484.0" y="648" width="50" height="50" rx="6" ry="6" fill="#C4B5FD"/><rect x="596.0" y="648" width="50" height="50" rx="6" ry="6" fill="#C4B5FD"/><rect x="652.0" y="648" width="50" height="50" rx="6" ry="6" fill="#C4B5FD"/><rect x="708.0" y="648" width="50" height="50" rx="6" ry="6" fill="#C4B5FD"/><rect x="260.0" y="704" width="50" height="50" rx="6" ry="6" fill="#C4B5FD"/><rect x="316.0" y="704" width="50" height="50" rx="6" ry="6" fill="#C4B5FD"/><rect x="652.0" y="704" width="50" height="50" rx="6" ry="6" fill="#C4B5FD"/><rect x="708.0" y="704" width="50" height="50" rx="6" ry="6" fill="#C4B5FD"/><rect x="204.0" y="760" width="50" height="50" rx="6" ry="6" fill="#C4B5FD"/><rect x="260.0" y="760" width="50" height="50" rx="6" ry="6" fill="#C4B5FD"/><rect x="708.0" y="760" width="50" height="50" rx="6" ry="6" fill="#C4B5FD"/><rect x="764.0" y="760" width="50" height="50" rx="6" ry="6" fill="#C4B5FD"/><rect x="60" y="60" width="89.60000000000001" height="89.60000000000001" rx="14" ry="14" fill="none" stroke="#C4B5FD" stroke-width="6" opacity="0.7"/><rect x="76" y="76" width="57.60000000000001" height="57.60000000000001" rx="6" ry="6" fill="#C4B5FD" opacity="0.7"/><rect x="874.4" y="60" width="89.60000000000001" height="89.60000000000001" rx="14" ry="14" fill="none" stroke="#C4B5FD" stroke-width="6" opacity="0.7"/><rect x="890.4" y="76" width="57.60000000000001" height="57.60000000000001" rx="6" ry="6" fill="#C4B5FD" opacity="0.7"/><rect x="60" y="874.4" width="89.60000000000001" height="89.60000000000001" rx="14" ry="14" fill="none" stroke="#C4B5FD" stroke-width="6" opacity="0.7"/><rect x="76" y="890.4" width="57.60000000000001" height="57.60000000000001" rx="6" ry="6" fill="#C4B5FD" opacity="0.7"/><text x="512.0" y="924" text-anchor="middle" font-family="Inter, 'Noto Sans', Arial, sans-serif" font-weight="900" font-size="118" letter-spacing="-2" fill="#FFFFFF">EZRATE</text></svg>